<?xml version="1.0" encoding="UTF-8" standalone="no"?>
<!DOCTYPE svg PUBLIC "-//W3C//DTD SVG 20010904//EN"
              "http://www.w3.org/TR/2001/REC-SVG-20010904/DTD/svg10.dtd">

<svg xmlns="http://www.w3.org/2000/svg"
     width="1.14286in" height="0.48in"
     viewBox="0 0 400 168">
<!-- emblem-outer -->
<path d="M55.96,24.7123v-8.815l-7.6351-4.4109-.4045.2318-6.4533,3.7239-5.8523-3.373v-7.66L27.9776,0l-.4.2308L20.3451,4.4091v7.66l-5.8518,3.373L7.6382,11.4864l-.4041.2318L0,15.8973v8.815l6.84,3.9511v6.6183L0,39.2334v8.8179l7.6382,4.4055,6.6944-3.86,6.0125,3.4729v7.6694l7.6325,4.4063,7.6368-4.4063V52.0693l6.0149-3.4729,6.6952,3.86L55.96,48.0513V39.2334l-6.84-3.9517V28.6634ZM54.348,47.1208c-.6691.3828-5.3588,3.0926-6.0235,3.4753-.6713-.3827-5.36-3.0925-6.0294-3.4753V41.8835H40.6864v5.3989L34.9993,50.563l-4.8311-2.7885-.8072,1.3943s3.9617,2.2889,4.6434,2.68v6.9588c-.67.386-5.3549,3.095-6.0268,3.48-.6673-.3853-5.3544-3.0943-6.0209-3.48V51.8487c.6786-.391,4.5841-2.646,4.5841-2.646l-.8072-1.3958L20.96,50.563,15.272,47.2824V41.8835H13.6632v5.2373c-.6718.3828-5.3554,3.0926-6.025,3.4753-.6691-.3827-5.3577-3.0925-6.0248-3.4753V40.1644c.6671-.3893,5.3557-3.0931,6.0248-3.476.6875.3928,4.8134,2.7769,4.8134,2.7769l.8066-1.3975L8.4517,35.2967V28.65l4.7212-2.7234-.8073-1.398S8.3239,26.87,7.6382,27.2626c-.6691-.3856-5.3577-3.0913-6.0248-3.48V16.8252c.6671-.386,5.3557-3.093,6.0248-3.48.67.3868,5.3532,3.0938,6.025,3.48v5.4255H15.272V16.8524l5.68-3.2755L25.79,16.3678l.8027-1.3958s-3.6877-2.1278-4.5555-2.6291a.3871.3871,0,0,0-.0161-.075l-.0647-.0278V5.3367c.6665-.3851,5.3536-3.0906,6.0209-3.4783.6719.3877,5.3563,3.0932,6.0268,3.4783v6.9607c-.6788.3907-4.58,2.6443-4.58,2.6443l.8049,1.3926,4.7817-2.7574,5.6752,3.2755v5.3983h1.6087V16.8252c.6693-.386,5.3581-3.093,6.0294-3.48.6647.3868,5.3544,3.0938,6.0235,3.48v6.9571c-.6691.389-5.3588,3.0947-6.0235,3.48-.6852-.3922-4.7322-2.7343-4.7322-2.7343l-.8046,1.398L47.51,28.65v6.647l-4.8078,2.7711.8044,1.3975s4.1282-2.3841,4.8179-2.7769c.6647.3829,5.3544,3.0867,6.0235,3.476Z"/>

<!-- emblem-inner -->
<path d="M19.2635,24.8527a.8037.8037,0,0,0,.8024-.8052V21.3136h3.3016v2.7339a.8051.8051,0,1,0,1.61,0V21.3136H30.983v2.7339a.8054.8054,0,0,0,1.6107,0V21.3136h3.3v2.7339a.8056.8056,0,0,0,1.6111,0V20.5084a.8065.8065,0,0,0-.8063-.8065H28.7844V18.6145a.8057.8057,0,0,0-1.6114,0v1.0874H19.2635a.8066.8066,0,0,0-.809.8065v3.5391A.8067.8067,0,0,0,19.2635,24.8527Z" style="fill:#007f4d"/><path d="M25.1693,29.4965a.6451.6451,0,0,0,.8935.1768c.0152-.01.852-.5729,1.9344-1.1992a20.1264,20.1264,0,0,1,1.752,1.2067.6439.6439,0,0,0,.7933-1.0145c-.4124-.3221-.84-.625-1.2549-.9021.3734-.1923.748-.372,1.1071-.525a.6439.6439,0,1,0-.5-1.1869c-.6171.2642-1.2681.5947-1.88.9287-1.0873-.6272-1.9124-1.0061-1.9725-1.0308a.6441.6441,0,0,0-.5319,1.1732c.01.0058.4983.2282,1.2067.6129-.7788.4707-1.3273.8365-1.3713.8633A.6489.6489,0,0,0,25.1693,29.4965Z" style="fill:#007f4d"/><path d="M25.1393,33.3308a.6412.6412,0,0,0,.8975.1607c.0126-.0058.731-.5,1.741-1.0376a15.4207,15.4207,0,0,1,2.0791,1.345.6485.6485,0,0,0,.9051-.1127.6414.6414,0,0,0-.1113-.905,16.2054,16.2054,0,0,0-1.4556-1,10.2541,10.2541,0,0,1,1.13-.3992.6451.6451,0,1,0-.3626-1.2381,13.8512,13.8512,0,0,0-2.1768.86c-1.0086-.5071-1.7641-.7891-1.8213-.8119a.6453.6453,0,0,0-.4482,1.21c.012.0051.3451.1281.8565.3579-.6252.3663-1.033.6479-1.0709.6744A.6418.6418,0,0,0,25.1393,33.3308Z" style="fill:#007f4d"/><path d="M22.69,33.3755a.8073.8073,0,0,0,0-1.6146H19.5946v-.7H22.69a.8051.8051,0,1,0,0-1.61H19.5946v-.5528H22.69a.8084.8084,0,0,0,0-1.6168H19.5946v-.8505a.8043.8043,0,1,0-1.6086,0v6.1383a.8067.8067,0,0,0,.8078.8061Z" style="fill:#007f4d"/><path d="M37.167,25.623a.8048.8048,0,0,0-.8039.8081v.8505H33.2656a.8084.8084,0,0,0,0,1.6168h3.0975v.5528H33.2656a.8051.8051,0,0,0,0,1.61h3.0975v.7H33.2656a.8073.8073,0,0,0,0,1.6146H37.167a.8106.8106,0,0,0,.809-.8061V26.4311A.81.81,0,0,0,37.167,25.623Z" style="fill:#007f4d"/><path d="M36.6638,34.65H19.2249a.8054.8054,0,0,0-.8039.8067v4.549a.8053.8053,0,0,0,1.6106,0V36.2643H35.8568v3.7412a.8071.8071,0,0,0,1.6142,0v-4.549A.8059.8059,0,0,0,36.6638,34.65Z" style="fill:#007f4d"/><path d="M34.0286,38.4307a.8029.8029,0,0,0-.8039.806v1.81h-4.44V40.323H31.391a.6461.6461,0,0,0,.6481-.6439V37.6578a.6483.6483,0,0,0-.6481-.6447H24.5317a.6446.6446,0,0,0-.6431.6447v2.0213a.6424.6424,0,0,0,.6431.6439H27.173v.7238H22.7384v-1.81a.8051.8051,0,1,0-1.61,0v2.6188a.8034.8034,0,0,0,.8016.8044H27.173v1.5772H22.2217a.8053.8053,0,1,0,0,1.6105h5.7559a.8051.8051,0,0,0,.8068-.8053V42.66h5.2442a.8062.8062,0,0,0,.8048-.8044V39.2367A.8046.8046,0,0,0,34.0286,38.4307Zm-8.8521-.1267h5.5729v.7323H25.1765Z" style="fill:#007f4d"/>

</svg>
