<?xml version="1.0" encoding="UTF-8" standalone="no"?>
<!DOCTYPE svg PUBLIC "-//W3C//DTD SVG 20010904//EN"
              "http://www.w3.org/TR/2001/REC-SVG-20010904/DTD/svg10.dtd">

<svg xmlns="http://www.w3.org/2000/svg"
     width="1.14286in" height="0.48in"
     viewBox="0 0 400 168">
  <path id="em_in"
        fill="none" stroke="black" stroke-width="1"
        d="M 85.69,48.36
           C 88.28,45.90 88.12,42.32 87.98,39.00
             87.48,26.90 69.52,25.85 65.60,35.18
             64.93,36.78 64.95,40.22 65.02,42.00
             65.30,48.86 69.14,49.16 73.00,54.00
             66.07,51.00 64.23,48.01 57.02,52.62
             55.56,53.55 53.96,54.58 53.19,56.21
             51.29,60.20 54.89,61.02 50.00,66.00
             50.00,63.37 50.42,57.71 49.01,55.61
             47.65,53.59 41.41,49.96 39.00,49.77
             35.90,49.52 28.85,53.45 27.57,56.33
             26.76,58.17 26.76,65.83 27.57,67.67
             29.04,70.99 36.41,75.02 40.00,74.20
             42.53,73.61 44.97,71.54 47.00,70.00
             45.60,75.48 43.29,73.94 40.99,77.53
             40.09,78.94 40.08,80.41 40.02,82.01
             39.65,91.67 41.92,90.92 49.00,96.00
             49.00,96.00 38.00,92.00 38.00,92.00
             35.41,93.86 29.44,96.99 28.02,99.33
             26.85,101.26 26.93,104.77 27.02,107.00
             27.09,108.67 27.14,110.30 28.02,111.79
             29.76,114.75 36.56,118.52 40.00,117.71
             41.37,117.38 43.77,115.96 44.98,115.18
             46.47,114.23 48.04,113.22 48.98,111.67
             50.35,109.41 50.00,104.68 50.00,102.00
             53.99,105.67 50.66,107.77 53.02,111.79
             53.96,113.39 55.46,114.33 57.02,115.25
             64.46,119.65 65.97,116.57 73.00,114.00
             73.00,114.00 65.57,121.38 65.57,121.38
             64.88,122.89 64.98,126.28 65.00,128.00
             65.04,129.89 64.98,131.96 66.02,133.62
             66.92,135.07 68.59,136.11 70.02,136.91
             75.56,140.35 77.51,140.09 82.98,136.91
             84.43,135.98 86.05,135.07 86.98,133.61
             88.16,131.75 88.07,128.18 87.98,126.00
             87.89,123.82 87.82,122.17 86.40,120.38
             85.10,118.72 80.92,116.26 79.00,115.00
             79.00,115.00 90.00,119.00 90.00,119.00
             90.00,119.00 99.01,112.47 99.01,112.47
             99.01,112.47 103.00,102.00 103.00,102.00
             103.00,102.00 103.00,106.00 103.00,106.00
             103.04,107.95 103.00,110.05 104.02,111.79
             104.98,113.42 106.46,114.31 108.02,115.26
             110.04,116.50 112.55,118.03 115.00,117.77
             116.54,117.61 118.64,116.47 120.00,115.71
             121.76,114.71 123.90,113.45 124.98,111.67
             127.30,107.83 126.43,99.99 122.85,97.24
             121.60,96.27 118.50,94.52 117.00,94.01
             110.99,91.93 110.42,96.36 104.00,95.00
             106.69,93.80 110.39,92.29 111.98,89.67
             112.87,88.20 112.91,86.65 112.98,85.00
             113.31,77.08 111.59,75.40 104.00,73.00
             104.00,73.00 105.00,70.00 105.00,70.00
             106.92,71.15 110.97,73.77 113.00,74.17
             115.71,74.72 117.73,73.49 120.00,72.18
             121.86,71.11 124.50,69.65 125.43,67.62
             125.93,66.52 125.94,65.17 125.98,63.98
             126.05,62.15 126.07,58.75 125.40,57.09
             123.18,51.55 115.16,48.48 110.00,51.07
             108.58,51.78 105.60,53.61 104.57,54.78
             101.85,57.89 104.44,59.48 101.00,66.00
             99.18,58.50 101.90,55.95 94.00,51.63
             91.88,50.48 90.46,49.74 88.00,50.29
             83.54,51.30 84.54,53.30 79.00,52.00
             81.07,51.10 84.06,49.91 85.69,48.36 Z
           M 81.05,60.86
           C 83.73,61.25 89.60,60.58 91.69,61.60
             94.22,62.84 95.56,68.10 91.00,70.00
             92.03,63.75 89.74,62.80 84.00,64.00
             84.00,64.00 84.00,70.00 84.00,70.00
             84.00,70.00 82.00,63.00 82.00,63.00
             82.00,63.00 70.00,63.00 70.00,63.00
             70.00,63.00 70.00,70.00 70.00,70.00
             70.00,70.00 68.00,70.00 68.00,70.00
             68.00,70.00 68.00,63.00 68.00,63.00
             60.61,63.60 62.32,65.41 60.00,71.00
             60.00,71.00 58.00,62.00 58.00,62.00
             63.36,60.70 71.94,62.57 75.00,58.00
             77.10,59.20 78.56,60.49 81.05,60.86 Z
           M 61.00,76.00
           C 61.00,76.00 67.00,75.00 67.00,75.00
             67.00,75.00 68.00,78.00 68.00,78.00
             68.00,78.00 61.00,77.00 61.00,77.00
             61.00,77.00 60.00,80.00 60.00,80.00
             60.00,80.00 68.00,81.00 68.00,81.00
             68.00,81.00 60.00,82.00 60.00,82.00
             60.00,82.00 60.00,84.00 60.00,84.00
             63.62,83.80 65.66,82.87 68.00,86.00
             68.00,86.00 58.00,86.00 58.00,86.00
             58.00,86.00 59.00,72.00 59.00,72.00
             59.00,72.00 61.00,76.00 61.00,76.00 Z
           M 82.00,73.00
           C 82.00,73.00 79.00,85.00 79.00,85.00
             79.00,85.00 82.00,86.00 82.00,86.00
             79.02,86.09 78.90,86.35 77.00,84.00
             77.00,84.00 75.00,84.00 75.00,84.00
             75.00,84.00 71.00,86.00 71.00,86.00
             71.00,86.00 73.00,82.00 73.00,82.00
             73.00,82.00 71.00,83.00 71.00,83.00
             71.30,79.66 70.63,78.38 74.00,77.00
             74.00,77.00 71.00,73.00 71.00,73.00
             71.00,73.00 72.00,72.00 72.00,72.00
             76.86,74.19 76.88,73.74 82.00,73.00 Z
           M 94.00,87.00
           C 94.00,87.00 85.00,86.00 85.00,86.00
             85.00,86.00 93.00,82.00 93.00,82.00
             93.00,82.00 84.00,80.00 84.00,80.00
             84.00,80.00 93.00,78.00 93.00,78.00
             89.05,77.95 87.34,78.50 85.00,75.00
             85.00,75.00 93.00,75.00 93.00,75.00
             93.00,75.00 92.00,74.00 92.00,74.00
             92.00,74.00 93.00,72.00 93.00,72.00
             95.97,76.05 95.13,82.33 94.00,87.00 Z
           M 58.93,92.13
           C 59.50,88.21 63.93,89.01 67.00,89.00
             74.54,88.99 86.03,89.69 93.00,88.00
             94.10,92.51 95.36,97.08 90.97,100.00
             90.97,100.00 90.97,93.40 90.97,93.40
             90.97,93.40 83.00,91.08 83.00,91.08
             83.00,91.08 61.00,91.08 61.00,91.08
             61.00,91.08 61.00,100.00 61.00,100.00
             61.00,100.00 58.93,100.00 58.93,100.00
             58.93,100.00 58.93,92.13 58.93,92.13 Z
           M 84.00,94.00
           C 84.00,94.00 84.00,98.00 84.00,98.00
             84.00,98.00 77.00,99.00 77.00,99.00
             77.00,99.00 77.00,101.00 77.00,101.00
             77.00,101.00 87.00,101.00 87.00,101.00
             87.00,101.00 86.00,96.00 86.00,96.00
             89.24,98.17 88.87,99.28 89.00,103.00
             89.00,103.00 77.00,103.00 77.00,103.00
             77.00,103.00 77.00,110.00 77.00,110.00
             77.00,110.00 65.00,109.00 65.00,109.00
             65.00,109.00 65.00,107.00 65.00,107.00
             69.99,106.98 72.34,107.72 75.00,103.00
             75.00,103.00 63.00,103.00 63.00,103.00
             63.00,103.00 64.00,96.00 64.00,96.00
             66.44,97.85 66.06,97.96 66.00,101.00
             66.00,101.00 75.00,101.00 75.00,101.00
             75.00,101.00 75.00,99.00 75.00,99.00
             75.00,99.00 69.00,99.00 69.00,99.00
             69.00,99.00 69.00,94.00 69.00,94.00
             69.00,94.00 84.00,94.00 84.00,94.00 Z" />
  <path id="em_part"
        fill="none" stroke="black" stroke-width="1"
        d="M 72.00,79.00
           C 75.13,82.05 75.80,81.88 80.00,81.00
             77.56,76.74 76.25,77.35 72.00,79.00 Z
           M 71.00,95.00
           C 73.87,98.20 78.80,97.35 82.00,95.00
             82.00,95.00 71.00,95.00 71.00,95.00 Z" />
  <path id="str_part"
        fill="none" stroke="black" stroke-width="1"
        d="M 291.00,58.00
           C 291.00,58.00 287.00,70.00 287.00,70.00
             287.00,70.00 297.00,70.00 297.00,70.00
             297.00,70.00 293.00,58.00 293.00,58.00
             293.00,58.00 291.00,58.00 291.00,58.00 Z
           M 352.00,70.00
           C 352.00,70.00 362.00,70.00 362.00,70.00
             362.00,70.00 357.00,58.00 357.00,58.00
             357.00,58.00 352.00,70.00 352.00,70.00 Z
           M 280.69,105.98
           C 286.22,102.22 279.25,93.68 277.11,100.15
             277.11,100.15 277.11,103.00 277.11,103.00
             277.11,103.00 277.11,107.00 277.11,107.00
             278.34,106.78 279.47,106.80 280.69,105.98 Z" />
  <path id="almost"
        fill="none" stroke="black" stroke-width="1"
        d="M 89.40,33.21
           C 90.50,35.75 89.59,41.26 90.31,43.91
             91.42,47.96 98.92,52.44 103.00,51.52
             106.23,50.79 110.48,46.90 114.00,46.80
             116.34,46.74 119.02,48.29 121.00,49.43
             129.12,54.09 128.14,56.37 128.00,65.00
             127.83,74.90 122.05,71.84 117.60,77.39
             115.90,79.51 115.73,84.04 115.92,86.70
             116.29,92.03 122.27,92.75 125.69,95.90
             128.05,98.09 127.94,100.00 128.00,103.00
             128.04,105.24 128.20,110.94 127.40,112.79
             125.95,116.18 116.64,121.40 113.00,120.74
             106.00,119.46 105.72,112.57 96.00,118.16
             85.92,123.96 92.06,128.65 89.40,134.79
             87.87,138.33 78.80,142.98 75.00,142.26
             71.49,141.60 63.97,137.27 62.60,133.90
             60.29,128.22 65.73,122.57 55.00,117.21
             53.75,116.59 52.42,115.95 51.00,115.91
             47.36,115.81 43.26,119.93 40.00,120.71
             36.95,121.43 34.55,119.72 32.00,118.28
             29.94,117.12 27.04,115.55 25.60,113.67
             23.30,110.67 23.25,100.35 25.60,97.38
             29.60,92.31 37.87,93.34 36.94,82.01
             36.09,71.54 24.24,76.96 24.00,64.00
             23.97,61.89 23.82,57.01 24.60,55.21
             26.12,51.67 36.20,46.09 40.00,46.94
             46.95,48.50 48.73,55.67 57.94,48.91
             64.65,43.98 60.56,39.12 62.60,34.10
             64.17,30.24 71.22,27.00 75.00,25.74
             79.23,25.55 87.60,29.06 89.40,33.21 Z
           M 269.00,74.00
           C 269.00,75.99 269.26,79.67 268.01,81.28
             265.22,84.86 252.08,84.32 248.00,83.24
             237.79,80.53 234.74,75.02 235.02,65.00
             235.11,61.47 235.54,59.13 237.36,56.02
             239.51,52.36 242.13,50.50 246.00,48.93
             249.88,47.36 253.84,46.86 258.00,47.04
             262.58,47.24 264.85,48.35 269.00,50.00
             269.00,50.00 267.00,55.00 267.00,55.00
             263.24,52.58 259.79,49.64 255.00,50.38
             251.87,50.86 249.29,52.75 247.22,55.05
             241.71,61.20 241.47,70.81 247.22,76.89
             250.31,80.17 257.69,83.71 260.98,78.69
             262.12,76.94 261.99,74.03 262.00,72.00
             262.00,72.00 262.00,68.00 262.00,68.00
             262.00,68.00 269.00,68.00 269.00,68.00
             269.00,68.00 269.00,74.00 269.00,74.00 Z
           M 299.60,57.00
           C 299.60,57.00 310.00,84.00 310.00,84.00
             310.00,84.00 302.00,84.00 302.00,84.00
             300.93,81.56 299.26,76.17 297.49,74.60
             294.97,72.36 288.34,73.00 285.00,73.00
             285.00,73.00 281.00,84.00 281.00,84.00
             281.00,84.00 278.00,84.00 278.00,84.00
             278.00,84.00 292.00,47.00 292.00,47.00
             297.59,48.77 297.59,51.93 299.60,57.00 Z
           M 353.60,56.00
           C 354.45,53.89 356.28,47.59 359.01,47.59
             361.96,47.59 363.59,53.78 364.42,56.00
             364.42,56.00 375.00,84.00 375.00,84.00
             375.00,84.00 367.00,84.00 367.00,84.00
             365.93,81.56 364.26,76.17 362.49,74.60
             359.97,72.36 353.34,73.00 350.00,73.00
             350.00,73.00 347.00,84.00 347.00,84.00
             347.00,84.00 343.00,84.00 343.00,84.00
             344.17,77.52 350.78,63.04 353.60,56.00 Z
           M 154.00,49.02
           C 154.00,49.02 176.96,72.00 176.96,72.00
             176.96,72.00 176.96,59.00 176.96,59.00
             176.96,59.00 176.00,48.00 176.00,48.00
             176.00,48.00 180.00,48.00 180.00,48.00
             180.00,48.00 180.00,83.00 180.00,83.00
             173.24,83.12 172.01,79.67 167.84,75.00
             162.83,69.40 158.13,63.39 152.00,59.00
             152.00,59.00 152.00,84.00 152.00,84.00
             152.00,84.00 148.00,83.00 148.00,83.00
             148.00,83.00 149.00,48.00 149.00,48.00
             149.00,48.00 154.00,49.02 154.00,49.02 Z
           M 201.00,48.00
           C 201.00,48.00 201.00,84.00 201.00,84.00
             201.00,84.00 193.00,83.00 193.00,83.00
             193.00,83.00 194.00,62.00 194.00,62.00
             194.00,62.00 193.00,48.00 193.00,48.00
             193.00,48.00 201.00,48.00 201.00,48.00 Z
           M 223.00,48.00
           C 223.00,48.00 222.03,58.00 222.03,58.00
             222.03,58.00 222.03,71.00 222.03,71.00
             222.03,71.00 222.03,84.00 222.03,84.00
             222.03,84.00 215.00,84.00 215.00,84.00
             215.00,84.00 215.00,48.00 215.00,48.00
             215.00,48.00 223.00,48.00 223.00,48.00 Z
           M 340.00,48.00
           C 338.13,53.33 334.99,51.40 330.00,51.00
             330.00,51.00 330.00,84.00 330.00,84.00
             330.00,84.00 323.00,84.00 323.00,84.00
             323.00,84.00 323.00,59.00 323.00,59.00
             322.95,56.63 323.06,53.48 320.69,52.06
             318.95,51.11 315.05,51.84 313.00,52.06
             313.00,52.06 313.00,48.00 313.00,48.00
             313.00,48.00 340.00,48.00 340.00,48.00 Z
           M 198.00,119.00
           C 190.74,117.80 185.28,107.54 179.00,103.00
             179.00,103.00 180.00,119.00 180.00,119.00
             180.00,119.00 177.00,119.00 177.00,119.00
             177.00,119.00 177.00,96.00 177.00,96.00
             184.37,97.19 190.67,106.66 196.00,112.00
             196.00,112.00 197.00,95.00 197.00,95.00
             197.00,95.00 198.00,119.00 198.00,119.00 Z
           M 240.84,97.22
           C 240.84,97.22 233.00,119.00 233.00,119.00
             233.00,119.00 229.08,117.43 229.08,117.43
             229.08,117.43 220.00,96.00 220.00,96.00
             229.52,96.34 225.91,99.31 233.00,113.00
             233.00,113.00 240.00,95.00 240.00,95.00
             240.00,95.00 240.84,97.22 240.84,97.22 Z
           M 301.98,117.13
           C 304.72,117.29 306.62,114.89 305.12,112.38
             303.64,109.92 299.16,109.10 297.60,104.96
             295.28,98.80 300.46,92.61 310.00,97.00
             310.00,97.00 309.00,100.00 309.00,100.00
             307.23,98.85 300.79,95.90 301.62,100.96
             302.23,104.65 309.27,105.27 310.53,111.01
             312.53,120.17 301.70,120.02 296.00,119.00
             296.00,119.00 297.00,115.00 297.00,115.00
             298.39,115.75 300.39,117.04 301.98,117.13 Z
           M 366.00,106.00
           C 366.00,106.00 375.00,95.00 375.00,95.00
             375.00,95.00 368.65,109.00 368.65,109.00
             368.65,109.00 368.00,119.00 368.00,119.00
             368.00,119.00 363.00,119.00 363.00,119.00
             363.00,119.00 362.35,109.00 362.35,109.00
             362.35,109.00 356.00,95.00 356.00,95.00
             363.19,97.02 364.56,98.33 366.00,106.00 Z
           M 154.00,96.00
           C 152.93,100.39 152.20,108.77 154.00,112.96
             156.02,117.64 160.92,119.38 164.26,114.85
             167.46,110.52 166.05,101.21 166.00,96.00
             166.00,96.00 169.00,96.00 169.00,96.00
             169.00,100.56 169.63,111.26 167.69,114.95
             164.17,121.63 152.75,121.56 149.17,114.95
             147.35,111.57 148.00,100.32 148.00,96.00
             148.00,96.00 154.00,96.00 154.00,96.00 Z
           M 212.00,96.00
           C 212.00,96.00 212.00,119.00 212.00,119.00
             212.00,119.00 207.00,119.00 207.00,119.00
             207.00,119.00 207.00,96.00 207.00,96.00
             207.00,96.00 212.00,96.00 212.00,96.00 Z
           M 263.00,96.00
           C 263.00,96.00 263.00,98.00 263.00,98.00
             261.02,98.03 258.01,97.87 256.32,99.02
             255.29,99.72 254.63,100.72 254.63,102.00
             254.63,105.88 259.27,105.90 262.00,106.00
             262.00,106.00 262.00,108.00 262.00,108.00
             262.00,108.00 254.00,108.00 254.00,108.00
             254.00,108.00 254.00,117.00 254.00,117.00
             254.00,117.00 263.00,117.00 263.00,117.00
             263.00,117.00 263.00,119.00 263.00,119.00
             263.00,119.00 249.00,119.00 249.00,119.00
             250.62,106.73 249.95,107.68 249.00,96.00
             249.00,96.00 263.00,96.00 263.00,96.00 Z
           M 284.85,96.60
           C 288.74,98.29 289.59,104.46 283.00,107.00
             283.00,107.00 290.00,120.00 290.00,120.00
             278.97,116.93 283.77,115.78 277.00,109.00
             277.00,109.00 278.00,119.00 278.00,119.00
             278.00,119.00 272.00,119.00 272.00,119.00
             272.00,119.00 272.00,96.00 272.00,96.00
             274.69,96.00 282.80,95.70 284.85,96.60 Z
           M 324.00,96.00
           C 324.00,96.00 324.00,119.00 324.00,119.00
             324.00,119.00 318.00,119.00 318.00,119.00
             319.49,112.86 319.49,102.14 318.00,96.00
             318.00,96.00 324.00,96.00 324.00,96.00 Z
           M 349.00,96.00
           C 349.00,96.00 349.00,98.00 349.00,98.00
             349.00,98.00 343.00,98.00 343.00,98.00
             343.00,98.00 343.00,119.00 343.00,119.00
             343.00,119.00 338.00,119.00 338.00,119.00
             338.00,119.00 338.00,98.00 338.00,98.00
             338.00,98.00 332.00,98.00 332.00,98.00
             332.00,98.00 332.00,96.00 332.00,96.00
             332.00,96.00 349.00,96.00 349.00,96.00 Z" />
</svg>
