<?xml version="1.0" encoding="UTF-8" standalone="no"?><!-- Generator: Gravit.io --><svg xmlns="http://www.w3.org/2000/svg" xmlns:xlink="http://www.w3.org/1999/xlink" style="isolation:isolate" viewBox="0 0 82.286 34.56" width="82.286pt" height="34.56pt"><defs>
<clipPath id="_clipPath_zlmSAUXlIElKXm5So0eHTedk8UeNMoyS"><rect width="82.286" height="34.56"/></clipPath></defs>
<g clip-path="url(#_clipPath_zlmSAUXlIElKXm5So0eHTedk8UeNMoyS)"><path d=" M 23 14.477 L 23 11.119 L 20.092 9.439 L 19.938 9.527 L 17.48 10.946 L 15.25 9.661 L 15.25 6.743 L 12.342 5.064 L 12.189 5.152 L 9.434 6.743 L 9.434 9.661 L 7.206 10.946 L 4.595 9.439 L 4.441 9.527 L 1.685 11.119 L 1.685 14.477 L 4.291 15.981 L 4.291 18.502 L 1.685 20.007 L 1.685 23.366 L 4.595 25.044 L 7.144 23.574 L 9.434 24.897 L 9.434 27.818 L 12.342 29.496 L 15.25 27.818 L 15.25 24.896 L 17.541 23.574 L 20.091 25.044 L 23 23.366 L 23 20.007 L 20.394 18.502 L 20.394 15.981 L 23 14.477 Z  M 22.386 23.012 C 22.131 23.157 20.345 24.19 20.091 24.335 C 19.836 24.19 18.05 23.157 17.795 23.012 L 17.795 21.017 L 17.182 21.017 L 17.182 23.073 L 15.016 24.323 L 13.176 23.261 L 12.868 23.792 C 12.868 23.792 14.377 24.664 14.637 24.812 L 14.637 27.463 C 14.382 27.61 12.597 28.642 12.342 28.788 C 12.087 28.642 10.302 27.61 10.048 27.463 L 10.048 24.812 C 10.307 24.664 11.794 23.805 11.794 23.805 L 11.487 23.273 L 9.669 24.323 L 7.502 23.073 L 7.502 21.017 L 6.889 21.017 L 6.889 23.012 C 6.633 23.157 4.85 24.19 4.595 24.335 C 4.34 24.19 2.554 23.157 2.3 23.012 L 2.3 20.362 C 2.554 20.214 4.34 19.184 4.595 19.038 C 4.856 19.188 6.428 20.096 6.428 20.096 L 6.735 19.563 L 4.904 18.508 L 4.904 15.976 L 6.703 14.939 L 6.395 14.407 C 6.395 14.407 4.856 15.298 4.595 15.448 C 4.34 15.301 2.554 14.27 2.3 14.122 L 2.3 11.472 C 2.554 11.325 4.34 10.294 4.595 10.147 C 4.85 10.294 6.633 11.325 6.889 11.472 L 6.889 13.539 L 7.502 13.539 L 7.502 11.483 L 9.666 10.235 L 11.508 11.298 L 11.814 10.767 C 11.814 10.767 10.409 9.956 10.079 9.765 C 10.078 9.755 10.076 9.746 10.073 9.737 L 10.048 9.726 L 10.048 7.097 C 10.302 6.95 12.087 5.919 12.341 5.772 C 12.597 5.919 14.382 6.95 14.637 7.097 L 14.637 9.748 C 14.378 9.897 12.893 10.755 12.893 10.755 L 13.199 11.285 L 15.02 10.235 L 17.182 11.483 L 17.182 13.539 L 17.795 13.539 L 17.795 11.472 C 18.05 11.325 19.836 10.294 20.091 10.147 C 20.344 10.294 22.131 11.325 22.386 11.472 L 22.386 14.122 C 22.131 14.27 20.344 15.301 20.091 15.448 C 19.83 15.298 18.289 14.406 18.289 14.406 L 17.982 14.939 L 19.781 15.976 L 19.781 18.508 L 17.95 19.564 L 18.256 20.096 C 18.256 20.096 19.829 19.188 20.091 19.038 C 20.345 19.184 22.131 20.214 22.386 20.362 L 22.386 23.012 Z " fill="rgb(0,0,0)"/><path d=" M 9.022 14.53 C 9.104 14.53 9.181 14.497 9.239 14.44 C 9.296 14.382 9.328 14.305 9.328 14.223 L 9.328 13.182 L 10.586 13.182 L 10.586 14.223 C 10.584 14.334 10.642 14.437 10.738 14.493 C 10.833 14.549 10.951 14.549 11.047 14.493 C 11.143 14.437 11.201 14.334 11.199 14.223 L 11.199 13.182 L 13.486 13.182 L 13.486 14.223 C 13.488 14.391 13.625 14.527 13.793 14.527 C 13.961 14.527 14.098 14.391 14.1 14.223 L 14.1 13.182 L 15.357 13.182 L 15.357 14.223 C 15.359 14.391 15.495 14.527 15.664 14.527 C 15.832 14.527 15.968 14.391 15.97 14.223 L 15.97 12.875 C 15.97 12.706 15.833 12.568 15.663 12.568 L 12.649 12.568 L 12.649 12.154 C 12.649 11.984 12.511 11.847 12.342 11.847 C 12.172 11.847 12.035 11.984 12.035 12.154 L 12.035 12.568 L 9.022 12.568 C 8.941 12.568 8.862 12.6 8.805 12.658 C 8.747 12.715 8.714 12.794 8.714 12.875 L 8.714 14.223 C 8.714 14.305 8.747 14.383 8.805 14.441 C 8.863 14.498 8.941 14.53 9.022 14.53 L 9.022 14.53 Z " fill="rgb(0,127,77)"/><path d=" M 11.272 16.299 C 11.347 16.411 11.5 16.441 11.612 16.366 C 11.618 16.362 11.937 16.148 12.349 15.909 C 12.579 16.051 12.802 16.204 13.016 16.369 C 13.123 16.452 13.277 16.434 13.361 16.327 C 13.444 16.22 13.425 16.066 13.318 15.983 C 13.161 15.86 12.999 15.744 12.841 15.639 C 12.983 15.566 13.125 15.497 13.262 15.439 C 13.387 15.386 13.446 15.243 13.393 15.118 C 13.34 14.993 13.197 14.934 13.072 14.987 C 12.837 15.088 12.589 15.213 12.356 15.341 C 11.942 15.102 11.627 14.957 11.604 14.948 C 11.481 14.894 11.337 14.948 11.282 15.071 C 11.226 15.194 11.28 15.338 11.402 15.395 C 11.406 15.397 11.592 15.482 11.861 15.628 C 11.565 15.808 11.356 15.947 11.339 15.957 C 11.227 16.033 11.197 16.186 11.272 16.299 Z " fill="rgb(0,127,77)"/><path d=" M 11.26 17.759 C 11.297 17.813 11.354 17.85 11.419 17.861 C 11.483 17.873 11.549 17.858 11.602 17.82 C 11.607 17.818 11.881 17.63 12.265 17.425 C 12.543 17.574 12.808 17.746 13.057 17.937 C 13.165 18.02 13.318 18.001 13.402 17.895 C 13.443 17.843 13.461 17.778 13.453 17.713 C 13.445 17.649 13.411 17.59 13.36 17.55 C 13.182 17.413 12.997 17.286 12.805 17.169 C 12.946 17.11 13.089 17.059 13.236 17.017 C 13.321 16.993 13.387 16.925 13.408 16.839 C 13.429 16.753 13.403 16.663 13.338 16.602 C 13.274 16.541 13.182 16.519 13.098 16.545 C 12.812 16.631 12.535 16.741 12.268 16.873 C 11.884 16.68 11.597 16.572 11.575 16.564 C 11.448 16.52 11.31 16.585 11.264 16.71 C 11.217 16.836 11.279 16.976 11.404 17.025 C 11.409 17.026 11.535 17.073 11.73 17.161 C 11.492 17.3 11.337 17.408 11.322 17.418 C 11.269 17.455 11.232 17.511 11.22 17.576 C 11.209 17.64 11.223 17.706 11.26 17.759 Z " fill="rgb(0,127,77)"/><path d=" M 10.328 17.776 C 10.497 17.776 10.635 17.639 10.635 17.469 C 10.635 17.299 10.497 17.161 10.328 17.161 L 9.149 17.161 L 9.149 16.895 L 10.328 16.895 C 10.438 16.896 10.541 16.838 10.597 16.743 C 10.653 16.647 10.653 16.529 10.597 16.433 C 10.541 16.338 10.438 16.28 10.328 16.281 L 9.149 16.281 L 9.149 16.071 L 10.328 16.071 C 10.498 16.071 10.635 15.933 10.635 15.763 C 10.635 15.593 10.498 15.455 10.328 15.455 L 9.149 15.455 L 9.149 15.131 C 9.149 15.022 9.09 14.92 8.995 14.866 C 8.901 14.811 8.784 14.811 8.689 14.866 C 8.594 14.92 8.536 15.022 8.536 15.131 L 8.536 17.469 C 8.536 17.551 8.568 17.629 8.626 17.686 C 8.684 17.744 8.762 17.776 8.844 17.776 L 10.328 17.776 Z " fill="rgb(0,127,77)"/><path d=" M 15.842 14.823 C 15.76 14.823 15.682 14.856 15.625 14.914 C 15.567 14.971 15.535 15.05 15.535 15.131 L 15.535 15.455 L 14.356 15.455 C 14.186 15.455 14.048 15.593 14.048 15.763 C 14.048 15.933 14.186 16.071 14.356 16.071 L 15.535 16.071 L 15.535 16.282 L 14.356 16.282 C 14.188 16.284 14.054 16.421 14.054 16.588 C 14.054 16.756 14.188 16.892 14.356 16.895 L 15.535 16.895 L 15.535 17.161 L 14.356 17.161 C 14.186 17.161 14.048 17.299 14.048 17.469 C 14.048 17.639 14.186 17.776 14.356 17.776 L 15.842 17.776 C 16.011 17.776 16.149 17.639 16.15 17.469 L 16.15 15.131 C 16.149 14.961 16.012 14.824 15.842 14.823 Z " fill="rgb(0,127,77)"/><path d=" M 15.65 18.262 L 9.008 18.262 C 8.838 18.262 8.701 18.4 8.702 18.569 L 8.702 20.302 C 8.702 20.471 8.839 20.608 9.008 20.608 C 9.178 20.608 9.315 20.471 9.315 20.302 L 9.315 18.877 L 15.343 18.877 L 15.343 20.302 C 15.343 20.471 15.48 20.609 15.65 20.609 C 15.82 20.609 15.957 20.471 15.957 20.302 L 15.957 18.569 C 15.958 18.487 15.925 18.409 15.867 18.351 C 15.81 18.294 15.732 18.262 15.65 18.262 L 15.65 18.262 Z " fill="rgb(0,127,77)"/><path d=" M 14.646 19.702 C 14.565 19.702 14.487 19.734 14.429 19.792 C 14.372 19.849 14.34 19.927 14.34 20.009 L 14.34 20.698 L 12.649 20.698 L 12.649 20.422 L 13.642 20.422 C 13.778 20.423 13.888 20.313 13.889 20.177 L 13.889 19.407 C 13.888 19.271 13.777 19.162 13.642 19.162 L 11.029 19.162 C 10.894 19.162 10.784 19.272 10.784 19.407 L 10.784 20.177 C 10.784 20.242 10.81 20.305 10.856 20.351 C 10.902 20.397 10.964 20.423 11.029 20.422 L 12.035 20.422 L 12.035 20.698 L 10.346 20.698 L 10.346 20.009 C 10.348 19.898 10.29 19.795 10.194 19.739 C 10.099 19.683 9.98 19.683 9.885 19.739 C 9.789 19.795 9.731 19.898 9.733 20.009 L 9.733 21.006 C 9.733 21.175 9.869 21.312 10.038 21.313 L 12.035 21.313 L 12.035 21.913 L 10.149 21.913 C 10.039 21.912 9.936 21.97 9.881 22.066 C 9.825 22.161 9.825 22.279 9.881 22.374 C 9.936 22.47 10.039 22.528 10.149 22.527 L 12.342 22.527 C 12.423 22.527 12.501 22.495 12.559 22.437 C 12.616 22.38 12.649 22.301 12.649 22.22 L 12.649 21.313 L 14.646 21.313 C 14.815 21.312 14.952 21.175 14.953 21.006 L 14.953 20.009 C 14.953 19.927 14.921 19.849 14.863 19.792 C 14.806 19.734 14.728 19.702 14.646 19.702 L 14.646 19.702 Z  M 11.275 19.653 L 13.397 19.653 L 13.397 19.932 L 11.275 19.932 L 11.275 19.653 Z " fill="rgb(0,127,77)"/><text transform="matrix(1,0,0,1,27.757,16.1)" style="font-family:serif;font-weight:400;font-size:10px;font-style:normal;font-variant-ligatures:none;word-spacing:72;letter-spacing:1.08;fill:#000000;stroke:none;">NIIGATA</text><text transform="matrix(1,0,0,1,26.886,27.003)" style="font-family:serif;font-weight:400;font-size:7px;font-style:normal;font-variant-ligatures:none;word-spacing:72;letter-spacing:1.08;fill:#000000;stroke:none;">UNIVERSITY</text></g></svg>
